<svg width="214" height="26" viewBox="0 0 214 26" fill="none" xmlns="http://www.w3.org/2000/svg">
<path d="M176.395 0.58374H211.395C211.618 0.588031 211.839 0.636345 212.043 0.72583C212.248 0.815315 212.433 0.944186 212.588 1.10522C212.743 1.26626 212.864 1.45626 212.945 1.66431C213.027 1.87235 213.066 2.09429 213.062 2.31763V23.9919C213.066 24.2153 213.027 24.4372 212.945 24.6453C212.864 24.8533 212.743 25.0433 212.588 25.2043C212.433 25.3654 212.248 25.4943 212.043 25.5837C211.839 25.6732 211.618 25.7215 211.395 25.7258H176.395C176.172 25.7215 175.951 25.6732 175.747 25.5837C175.542 25.4943 175.357 25.3654 175.202 25.2043C175.047 25.0433 174.926 24.8533 174.844 24.6453C174.763 24.4372 174.723 24.2153 174.728 23.9919V2.31763C174.723 2.09429 174.763 1.87235 174.844 1.66431C174.926 1.45626 175.047 1.26626 175.202 1.10522C175.357 0.944186 175.542 0.815315 175.747 0.72583C175.951 0.636345 176.172 0.588031 176.395 0.58374Z" fill="url(#paint0_linear_8_527)"/>
<path d="M204.7 17.8098L204.448 16.5149H201.714L201.265 17.8098H199.023L202.23 9.74487C202.305 9.54488 202.441 9.37385 202.62 9.25708C202.799 9.14031 203.01 9.08399 203.223 9.09595H204.952L206.674 17.8108L204.7 17.8098ZM203.464 11.4656L202.334 14.7268H204.1L203.464 11.4656ZM196.177 11.5798C196.177 12.5318 199.177 12.7356 199.177 14.9246C199.177 17.0326 196.962 17.8079 195.495 17.8079C194.661 17.8216 193.834 17.6594 193.067 17.3318L193.387 15.4417C194.267 16.1617 196.936 16.3669 196.936 15.2239C196.936 14.0809 193.961 14.0537 193.961 11.8777C193.961 9.56569 196.495 9.0896 197.561 9.0896C198.221 9.10653 198.874 9.23066 199.495 9.45679L199.188 11.2659C198.27 10.7539 196.175 10.6317 196.175 11.5837L196.177 11.5798ZM189.593 17.8098L190.937 9.09448H193.088L191.744 17.8098H189.593ZM184.436 17.8098L182.57 10.2478C182.9 10.4537 183.214 10.683 183.511 10.9338C184.408 11.7014 185.091 12.6883 185.492 13.7986L185.735 15.0896L187.786 9.09595H190.101L186.679 17.8108L184.436 17.8098ZM180.642 9.33374L180.542 9.30396L180.642 9.33374ZM180.422 9.2688L180.374 9.25562L180.422 9.2688ZM180.951 9.43872L180.823 9.3938L180.951 9.43872ZM182.442 10.1638C182.375 10.1225 182.309 10.0827 182.242 10.0447C182.306 10.0887 182.372 10.1267 182.44 10.1687L182.442 10.1638ZM181.928 9.87378C181.87 9.84378 181.81 9.81194 181.753 9.78394C181.808 9.81694 181.867 9.84866 181.926 9.87866L181.928 9.87378ZM181.393 9.61694L181.275 9.56567L181.393 9.61694Z" fill="#494CA3"/>
<path d="M185.489 13.8027L184.765 9.88476C184.727 9.64861 184.6 9.43591 184.411 9.29003C184.221 9.14415 183.983 9.07641 183.745 9.10009H180.355L180.315 9.24706C181.492 9.56445 182.583 10.1419 183.507 10.937C184.404 11.7047 185.087 12.692 185.489 13.8027Z" fill="#FFC000"/>
<path d="M118.342 0.744873H153.077C153.526 0.756928 153.951 0.945887 154.261 1.27075C154.571 1.59562 154.74 2.0299 154.731 2.47876V24.1516C154.74 24.6005 154.571 25.0348 154.261 25.3596C153.951 25.6845 153.526 25.8734 153.077 25.8855H118.342C117.893 25.8734 117.467 25.6845 117.157 25.3596C116.847 25.0348 116.679 24.6005 116.688 24.1516V2.47974C116.678 2.0307 116.847 1.59632 117.157 1.27124C117.467 0.946158 117.893 0.756927 118.342 0.744873Z" fill="#F1F1F1"/>
<path d="M117.1 25.2947C116.834 24.9739 116.689 24.57 116.691 24.1536V2.47974C116.681 2.0307 116.85 1.59632 117.16 1.27124C117.47 0.946158 117.896 0.756927 118.345 0.744873H153.079C153.5 0.745819 153.905 0.912333 154.205 1.20874L117.105 25.2947H117.1Z" fill="white" fill-opacity="0.73"/>
<path d="M131.336 18.7098L132.636 16.3597L131.912 10.7156H133.683L133.969 14.056L135.702 10.7156H137.53L133.321 18.7098H131.336ZM125.783 14.494C126.056 13.12 127.383 12.6839 129.345 12.6839C129.462 12.0729 129.073 11.9197 128.411 11.9427C127.827 11.971 127.253 12.1042 126.717 12.3358L126.872 10.9627C127.516 10.7626 128.183 10.6452 128.857 10.6136C130.083 10.5916 131.446 10.983 131.135 12.576L130.376 16.326H128.605L128.721 15.7576C128.515 15.9698 128.27 16.1391 127.998 16.2552C127.726 16.3713 127.434 16.432 127.139 16.4339C126.3 16.4299 125.553 15.8836 125.784 14.4896L125.783 14.494ZM127.594 14.4066C127.538 14.4855 127.506 14.5791 127.503 14.6756C127.499 14.7722 127.523 14.868 127.573 14.951C127.622 15.034 127.694 15.1011 127.781 15.1439C127.868 15.1866 127.965 15.203 128.061 15.1917C128.28 15.2015 128.495 15.1318 128.667 14.9954C128.839 14.8591 128.956 14.6656 128.996 14.45C129.019 14.2815 129.052 14.1145 129.096 13.95H128.648C128.448 13.9315 128.247 13.9632 128.063 14.0423C127.879 14.1214 127.718 14.2452 127.594 14.4027V14.4066ZM119.683 16.326L121.147 9.15364H124.454C124.749 9.15102 125.04 9.21925 125.303 9.35237C125.566 9.48549 125.793 9.67969 125.966 9.91877C126.138 10.1579 126.251 10.4348 126.294 10.7264C126.338 11.018 126.31 11.3156 126.215 11.5946C126.12 12.2504 125.791 12.8498 125.289 13.2825C124.787 13.7152 124.146 13.9526 123.483 13.95H122.1L121.625 16.326H119.683ZM122.376 12.576H123.286C123.552 12.5548 123.804 12.4473 124.004 12.2703C124.204 12.0934 124.341 11.8562 124.395 11.5946C124.437 11.4869 124.452 11.371 124.44 11.2562C124.427 11.1413 124.387 11.031 124.323 10.9349C124.259 10.8387 124.173 10.7597 124.072 10.7039C123.971 10.6482 123.857 10.6173 123.742 10.6146H122.792L122.376 12.576Z" fill="#3284AE"/>
<path d="M143 14.4895C143.276 13.1155 144.617 12.6809 146.606 12.6809C146.744 12.0689 146.35 11.9177 145.68 11.9397C145.084 11.9704 144.497 12.103 143.946 12.3318L144.104 10.9587C144.764 10.7611 145.445 10.6441 146.133 10.6106C147.374 10.5886 148.733 10.9795 148.418 12.5715L147.65 16.3206H145.877L145.995 15.7546C145.565 16.1838 144.984 16.4269 144.377 16.4309C143.519 16.4299 142.763 15.8845 143 14.4895ZM144.833 14.4026C144.779 14.4842 144.75 14.5797 144.749 14.6775C144.747 14.7753 144.775 14.8711 144.827 14.9539C144.879 15.0367 144.953 15.1028 145.042 15.1443C145.13 15.1857 145.229 15.2009 145.326 15.1877C145.544 15.1975 145.758 15.1276 145.928 14.9915C146.098 14.8554 146.213 14.6621 146.252 14.4475C146.291 14.2725 146.311 14.1195 146.352 13.9475H145.919C145.714 13.9268 145.507 13.9576 145.317 14.0369C145.127 14.1161 144.959 14.2414 144.83 14.4016L144.833 14.4026ZM148.469 16.3206L149.935 9.12671H151.755L150.27 16.3206H148.469ZM136.9 16.3206L138.362 9.14966H141.662C141.956 9.14886 142.246 9.21815 142.508 9.35181C142.769 9.48546 142.996 9.67966 143.167 9.91821C143.339 10.1568 143.451 10.4327 143.495 10.7234C143.539 11.0141 143.513 11.3111 143.419 11.5896C143.324 12.2478 142.993 12.849 142.488 13.282C141.983 13.715 141.339 13.9505 140.674 13.9446H139.311L138.817 16.3196L136.9 16.3206ZM139.587 12.5715H140.475C140.743 12.5509 140.998 12.4445 141.201 12.2678C141.404 12.0911 141.544 11.8535 141.602 11.5906C141.642 11.4815 141.655 11.3645 141.64 11.2493C141.626 11.134 141.584 11.0238 141.518 10.928C141.453 10.8321 141.365 10.7537 141.263 10.6985C141.161 10.6433 141.047 10.613 140.931 10.6106H139.983L139.587 12.5715Z" fill="#3CA9C7"/>
<path d="M60.1588 0.58374H95.1317C95.5824 0.59293 96.0111 0.780534 96.3233 1.10571C96.6356 1.43089 96.8058 1.8669 96.7967 2.31763V23.9919C96.8058 24.4427 96.6356 24.8782 96.3233 25.2034C96.0111 25.5285 95.5824 25.7166 95.1317 25.7258H60.1588C59.7081 25.7166 59.2794 25.5285 58.9671 25.2034C58.6549 24.8782 58.4846 24.4427 58.4938 23.9919V2.31763C58.4846 1.8669 58.6549 1.43089 58.9671 1.10571C59.2794 0.780534 59.7081 0.59293 60.1588 0.58374V0.58374Z" fill="#5870BE"/>
<path d="M75.2488 13.1505C75.2492 11.3748 75.7761 9.63901 76.7629 8.16271C77.7498 6.6864 79.1522 5.53588 80.7928 4.85656C82.4335 4.17723 84.2388 3.9997 85.9803 4.3463C87.7219 4.6929 89.3217 5.54811 90.5773 6.80382C91.8328 8.05954 92.6879 9.65935 93.0343 11.401C93.3807 13.1426 93.2028 14.9479 92.5233 16.5885C91.8438 18.2291 90.6932 19.6311 89.2168 20.6178C87.7404 21.6044 86.0045 22.1313 84.2288 22.1315C83.0494 22.1315 81.8816 21.8992 80.792 21.4479C79.7024 20.9965 78.7124 20.3351 77.8785 19.5011C77.0447 18.6671 76.3832 17.6771 75.932 16.5875C75.4808 15.4979 75.2486 14.3299 75.2488 13.1505Z" fill="#FFAF38"/>
<path d="M70.4697 22.1296C68.9386 22.1294 67.433 21.7378 66.0959 20.9919C64.7588 20.246 63.6346 19.1706 62.8302 17.8679C62.0257 16.5652 61.5677 15.0786 61.4996 13.549C61.4315 12.0195 61.7557 10.4976 62.4413 9.12861C63.1268 7.75959 64.151 6.58898 65.4166 5.72725C66.6822 4.86552 68.147 4.34146 69.672 4.20527C71.197 4.06909 72.7315 4.32507 74.1297 4.94893C75.5279 5.57278 76.7435 6.54384 77.6607 7.76973H76.4608V8.36983H78.0737C78.1947 8.56083 78.3088 8.75869 78.4148 8.95869H75.8607V9.55879H78.7037C78.7917 9.75879 78.8708 9.95889 78.9408 10.1589H75.2607V10.7585H79.1288C79.6149 12.5325 79.5479 14.4128 78.9367 16.1477H75.2607V16.7478H78.6997C78.6097 16.9548 78.5128 17.1476 78.4148 17.3386H75.8607V17.9387H78.0667C77.9337 18.1487 77.7948 18.3498 77.6538 18.5388H76.4608V19.1389H77.1607C76.318 20.0792 75.2866 20.8315 74.1338 21.3469C72.9809 21.8622 71.7325 22.1287 70.4697 22.1296V22.1296Z" fill="#E63737"/>
<path d="M60.6184 14.8026L61.1651 10.5426L62.0136 10.6515L62.6348 13.7971C62.6918 14.09 62.7326 14.3089 62.7573 14.4538C62.8256 14.3051 62.9304 14.0871 63.0716 13.8L64.4719 10.967L65.2304 11.0643L64.6837 15.3243L64.1403 15.2545L64.5979 11.689L62.9024 15.0957L62.3939 15.0304L61.6272 11.2458L61.1618 14.8723L60.6184 14.8026ZM67.589 15.3102C67.3741 15.45 67.1723 15.5422 66.9834 15.5869C66.7965 15.6318 66.6003 15.6411 66.395 15.6148C66.056 15.5713 65.806 15.4555 65.645 15.2675C65.4843 15.0775 65.4205 14.8537 65.4535 14.596C65.4729 14.4449 65.5245 14.3117 65.6082 14.1964C65.6941 14.0795 65.7971 13.9903 65.9172 13.9289C66.0393 13.8678 66.1725 13.8268 66.317 13.806C66.4231 13.792 66.5815 13.7857 66.792 13.7872C67.2208 13.791 67.5394 13.7708 67.7479 13.7267C67.759 13.6553 67.7658 13.6099 67.7683 13.5905C67.7957 13.3774 67.7655 13.2209 67.6779 13.1211C67.5594 12.9858 67.3684 12.9012 67.105 12.8674C66.8589 12.8358 66.6713 12.856 66.5419 12.928C66.4147 12.9983 66.309 13.1394 66.2247 13.3511L65.7222 13.2157C65.7968 13.0027 65.896 12.8363 66.0197 12.7163C66.1436 12.5943 66.3109 12.5105 66.5216 12.4646C66.7325 12.4169 66.9707 12.41 67.2361 12.4441C67.4996 12.4779 67.7096 12.5364 67.8664 12.6195C68.0231 12.7026 68.1341 12.7966 68.1994 12.9015C68.2649 13.0044 68.304 13.1296 68.3166 13.2769C68.3226 13.3682 68.3107 13.5301 68.2809 13.7626L68.1914 14.46C68.129 14.9463 68.1001 15.2557 68.1047 15.3882C68.1116 15.519 68.1403 15.6478 68.191 15.7744L67.6447 15.7043C67.6044 15.5888 67.5858 15.4575 67.589 15.3102ZM67.6953 14.1364C67.4955 14.1896 67.2023 14.2189 66.8156 14.2244C66.5966 14.2278 66.4401 14.2431 66.346 14.2705C66.2519 14.2978 66.1758 14.3461 66.1177 14.4154C66.0598 14.4828 66.025 14.562 66.0133 14.6531C65.9954 14.7926 66.0328 14.9155 66.1255 15.0219C66.2201 15.1286 66.3691 15.195 66.5725 15.2211C66.774 15.2469 66.9588 15.2264 67.1269 15.1593C67.2952 15.0903 67.426 14.9841 67.5193 14.8405C67.5906 14.7295 67.6411 14.5588 67.6707 14.3282L67.6953 14.1364ZM68.748 14.9095L69.2757 14.8946C69.2782 15.1056 69.3382 15.2747 69.4558 15.4021C69.5753 15.5296 69.7541 15.6087 69.9924 15.6393C70.2326 15.6701 70.4171 15.6446 70.5457 15.5626C70.6747 15.4787 70.7476 15.3709 70.7645 15.2392C70.7796 15.121 70.7402 15.0215 70.6463 14.9405C70.5806 14.8848 70.4099 14.8028 70.1343 14.6946C69.7632 14.5485 69.5075 14.431 69.3673 14.3421C69.2293 14.2516 69.1295 14.1393 69.0679 14.0054C69.0085 13.8698 68.9885 13.7264 69.0079 13.5753C69.0255 13.4378 69.0728 13.3149 69.1497 13.2066C69.2288 13.0966 69.3276 13.0098 69.446 12.9463C69.5351 12.8967 69.652 12.8605 69.7967 12.8377C69.9436 12.8132 70.0974 12.8113 70.2582 12.8319C70.5003 12.863 70.708 12.9251 70.8811 13.0182C71.0562 13.1116 71.1797 13.2239 71.2514 13.3552C71.3234 13.4846 71.3631 13.6511 71.3704 13.8549L70.85 13.859C70.8472 13.6971 70.7953 13.5645 70.6944 13.4609C70.5954 13.3576 70.4442 13.293 70.2408 13.2668C70.0005 13.236 69.824 13.2537 69.7111 13.32C69.5983 13.3862 69.535 13.4726 69.5213 13.5792C69.5126 13.647 69.5261 13.7107 69.5618 13.7705C69.5972 13.8321 69.658 13.8872 69.7444 13.9357C69.7942 13.9617 69.9425 14.0261 70.1892 14.1286C70.5466 14.2749 70.7938 14.3893 70.9309 14.4719C71.0702 14.5528 71.1737 14.6586 71.2416 14.7894C71.3095 14.9202 71.332 15.0748 71.3091 15.253C71.2868 15.4273 71.2143 15.5854 71.0917 15.7272C70.9714 15.8673 70.8098 15.9677 70.6071 16.0283C70.4046 16.087 70.1823 16.1008 69.9401 16.0697C69.5391 16.0183 69.2437 15.8957 69.054 15.702C68.8661 15.5085 68.7641 15.2444 68.748 14.9095ZM73.0167 15.9181L73.0329 16.3899C72.8817 16.402 72.748 16.4005 72.6318 16.3856C72.4419 16.3613 72.2986 16.3123 72.2017 16.2389C72.1047 16.1654 72.0412 16.0775 72.011 15.9751C71.9811 15.8709 71.9862 15.6618 72.0265 15.348L72.2544 13.5725L71.8708 13.5233L71.923 13.1165L72.3066 13.1657L72.4047 12.4015L72.9651 12.1544L72.8267 13.2325L73.3527 13.2999L73.3005 13.7068L72.7745 13.6393L72.5429 15.4438C72.5238 15.593 72.5202 15.69 72.5322 15.7348C72.5461 15.7799 72.5717 15.8177 72.6092 15.8481C72.6486 15.8788 72.707 15.8991 72.7845 15.909C72.8426 15.9165 72.92 15.9195 73.0167 15.9181ZM75.7111 15.7293L76.243 15.8655C76.1172 16.1703 75.9279 16.3951 75.675 16.5399C75.4221 16.6846 75.1164 16.734 74.758 16.688C74.3067 16.6301 73.9661 16.4456 73.7362 16.1345C73.5085 15.8217 73.4269 15.4145 73.4913 14.9127C73.5579 14.3936 73.7433 14.0078 74.0474 13.7554C74.3516 13.503 74.7167 13.4041 75.1429 13.4588C75.5556 13.5118 75.8746 13.6955 76.1001 14.0099C76.3256 14.3244 76.4056 14.7364 76.3402 15.2459C76.3363 15.2769 76.3293 15.3232 76.3194 15.385L74.018 15.0896C73.9939 15.4311 74.0564 15.703 74.2057 15.9053C74.355 16.1076 74.5585 16.2253 74.8161 16.2583C75.0079 16.283 75.1781 16.2536 75.3266 16.1703C75.4752 16.0869 75.6033 15.9399 75.7111 15.7293ZM74.1022 14.6633L75.8254 14.8844C75.8355 14.6219 75.7946 14.4187 75.7028 14.275C75.562 14.0521 75.3589 13.9237 75.0935 13.8896C74.8533 13.8588 74.6406 13.9132 74.4553 14.0529C74.2719 14.1928 74.1542 14.3962 74.1022 14.6633ZM76.7778 16.8764L77.1739 13.7903L77.6446 13.8508L77.5846 14.3186C77.7328 14.1151 77.8617 13.9849 77.9714 13.9281C78.0831 13.8716 78.1999 13.8511 78.3219 13.8668C78.4982 13.8894 78.6702 13.9686 78.8379 14.1043L78.5954 14.5665C78.4773 14.4745 78.3543 14.4203 78.2264 14.4039C78.1121 14.3892 78.005 14.4109 77.905 14.469C77.8052 14.5251 77.7281 14.6117 77.6737 14.7288C77.5917 14.9073 77.5366 15.107 77.5082 15.3278L77.3009 16.9435L76.7778 16.8764ZM82.0635 16.0365L82.609 16.2512C82.4314 16.699 82.1729 17.0252 81.8336 17.2298C81.4964 17.4327 81.106 17.5056 80.6624 17.4487C80.2032 17.3898 79.8413 17.2488 79.5765 17.0258C79.3139 16.8011 79.1298 16.5018 79.0242 16.1279C78.9205 15.7542 78.8948 15.364 78.947 14.9572C79.0039 14.5135 79.1378 14.1379 79.3486 13.8302C79.5616 13.5208 79.835 13.3009 80.1688 13.1704C80.5047 13.0383 80.8606 12.9963 81.2364 13.0446C81.6626 13.0993 82.0071 13.2537 82.2698 13.508C82.5326 13.7623 82.6959 14.0933 82.7597 14.5013L82.1879 14.5608C82.1289 14.2382 82.0145 13.9941 81.8447 13.8286C81.6749 13.663 81.4477 13.562 81.1629 13.5254C80.8355 13.4834 80.5513 13.5267 80.3103 13.6553C80.0713 13.7841 79.8902 13.9755 79.767 14.2295C79.6441 14.4815 79.5646 14.7479 79.5286 15.0288C79.4821 15.3911 79.4937 15.7146 79.5635 15.9992C79.6355 16.2822 79.7743 16.5048 79.98 16.667C80.1856 16.8293 80.4182 16.9271 80.6778 16.9604C80.9936 17.0009 81.2726 16.9442 81.5149 16.7902C81.7571 16.6361 81.94 16.3849 82.0635 16.0365ZM85.1287 17.5611C84.9139 17.7009 84.712 17.7932 84.5232 17.8378C84.3362 17.8828 84.1401 17.8921 83.9347 17.8657C83.5957 17.8222 83.3457 17.7064 83.1848 17.5184C83.024 17.3284 82.9602 17.1046 82.9933 16.847C83.0127 16.6959 83.0642 16.5627 83.1479 16.4474C83.2338 16.3304 83.3369 16.2412 83.457 16.1799C83.579 16.1187 83.7123 16.0777 83.8567 16.0569C83.9629 16.0429 84.1212 16.0367 84.3317 16.0381C84.7605 16.0419 85.0792 16.0218 85.2876 15.9776C85.2988 15.9062 85.3056 15.8608 85.3081 15.8414C85.3354 15.6283 85.3053 15.4719 85.2177 15.372C85.0992 15.2367 84.9082 15.1521 84.6447 15.1183C84.3987 15.0867 84.211 15.107 84.0816 15.179C83.9545 15.2493 83.8487 15.3903 83.7645 15.602L83.262 15.4666C83.3366 15.2537 83.4357 15.0872 83.5594 14.9672C83.6834 14.8453 83.8507 14.7614 84.0614 14.7156C84.2723 14.6678 84.5104 14.661 84.7758 14.695C85.0393 14.7288 85.2494 14.7873 85.4061 14.8704C85.5628 14.9536 85.6738 15.0476 85.7391 15.1524C85.8047 15.2554 85.8438 15.3805 85.8564 15.5278C85.8624 15.6192 85.8504 15.7811 85.8206 16.0136L85.7311 16.711C85.6687 17.1972 85.6398 17.5066 85.6445 17.6391C85.6513 17.77 85.6801 17.8987 85.7308 18.0253L85.1845 17.9552C85.1442 17.8398 85.1256 17.7084 85.1287 17.5611ZM85.2351 16.3874C85.0353 16.4405 84.742 16.4698 84.3554 16.4753C84.1364 16.4787 83.9798 16.4941 83.8857 16.5214C83.7916 16.5487 83.7155 16.597 83.6574 16.6664C83.5995 16.7338 83.5648 16.813 83.5531 16.904C83.5352 17.0435 83.5726 17.1665 83.6652 17.2729C83.7599 17.3795 83.9089 17.4459 84.1123 17.472C84.3137 17.4979 84.4985 17.4773 84.6666 17.4103C84.835 17.3413 84.9658 17.235 85.059 17.0914C85.1304 16.9804 85.1809 16.8097 85.2104 16.5792L85.2351 16.3874ZM86.373 18.1077L86.769 15.0217L87.2398 15.0821L87.1797 15.55C87.3279 15.3465 87.4569 15.2163 87.5666 15.1595C87.6782 15.1029 87.795 15.0825 87.9171 15.0982C88.0934 15.1208 88.2653 15.2 88.433 15.3357L88.1906 15.7978C88.0724 15.7059 87.9494 15.6517 87.8216 15.6353C87.7073 15.6206 87.6001 15.6423 87.5001 15.7004C87.4004 15.7565 87.3233 15.8431 87.2689 15.9602C87.1869 16.1387 87.1317 16.3384 87.1034 16.5592L86.896 18.1749L86.373 18.1077ZM90.3627 18.6198L90.4127 18.2304C90.1778 18.5113 89.8704 18.6275 89.4907 18.5787C89.2447 18.5472 89.0268 18.4503 88.8369 18.2881C88.6489 18.1261 88.5133 17.9167 88.4301 17.6599C88.3491 17.4014 88.3288 17.1142 88.3694 16.7985C88.4089 16.4904 88.496 16.2181 88.6308 15.9813C88.7658 15.7427 88.9445 15.5697 89.167 15.4624C89.3895 15.3551 89.6277 15.3177 89.8814 15.3503C90.0674 15.3741 90.2279 15.4351 90.363 15.5332C90.4984 15.6293 90.6035 15.7462 90.6784 15.8838L90.8746 14.3553L91.3947 14.422L90.848 18.682L90.3627 18.6198ZM88.9069 16.8675C88.8562 17.2627 88.9016 17.5688 89.0431 17.7858C89.1846 18.0029 89.3687 18.1259 89.5953 18.155C89.8239 18.1843 90.0296 18.1162 90.2123 17.9506C90.3972 17.7834 90.5143 17.5079 90.5635 17.1244C90.6177 16.702 90.5761 16.3816 90.4387 16.1632C90.3014 15.9447 90.1135 15.8201 89.8753 15.7896C89.6428 15.7597 89.4359 15.8297 89.2546 15.9994C89.0753 16.1693 88.9594 16.4587 88.9069 16.8675Z" fill="white"/>
<path d="M2.29185 0.781494H37.2739C37.4972 0.785915 37.7173 0.83453 37.9219 0.924072C38.1264 1.01361 38.3113 1.14244 38.466 1.30347C38.6208 1.46449 38.7423 1.65457 38.8236 1.86255C38.9049 2.07053 38.9443 2.29261 38.9398 2.51587V24.1917C38.9486 24.6424 38.7781 25.0781 38.4657 25.4031C38.1533 25.7281 37.7246 25.9156 37.2739 25.9246H2.29185C1.84113 25.9156 1.41238 25.7281 1.09996 25.4031C0.78753 25.0781 0.616995 24.6424 0.625835 24.1917V2.51587C0.621325 2.29261 0.660876 2.07053 0.742168 1.86255C0.82346 1.65457 0.944879 1.46449 1.09959 1.30347C1.2543 1.14244 1.43921 1.01361 1.64378 0.924072C1.84834 0.83453 2.06859 0.785915 2.29185 0.781494V0.781494Z" fill="#353A40"/>
<path d="M23.3148 17.3458C23.0504 17.2114 22.833 16.9997 22.6909 16.7394C22.5205 16.4207 22.4377 16.0629 22.4509 15.7018C22.4363 15.4556 22.4705 15.209 22.5519 14.9762C22.6332 14.7434 22.7601 14.5292 22.9249 14.3458C23.1002 14.1789 23.3078 14.0497 23.535 13.9664C23.7623 13.8832 24.0042 13.8473 24.2458 13.8615C24.4893 13.8458 24.7334 13.88 24.9631 13.962C25.1929 14.0441 25.4034 14.1722 25.5819 14.3385C25.7452 14.5185 25.8707 14.7293 25.9513 14.9586C26.0318 15.1879 26.0658 15.4309 26.0509 15.6735C26.0658 16.0251 25.9971 16.3753 25.8508 16.6954C25.7187 16.956 25.5129 17.1721 25.2589 17.3165C24.9615 17.4738 24.6281 17.5505 24.2919 17.5387C23.9557 17.5508 23.6212 17.4849 23.3148 17.3458V17.3458ZM23.7208 14.9288C23.5919 15.1672 23.5244 15.4338 23.5244 15.7047C23.5244 15.9757 23.5919 16.2423 23.7208 16.4806C23.7888 16.5544 23.8715 16.6131 23.9634 16.6535C24.0553 16.6938 24.1545 16.715 24.2549 16.715C24.3552 16.715 24.4545 16.6938 24.5464 16.6535C24.6383 16.6131 24.7208 16.5544 24.7888 16.4806C24.9404 16.2333 25.0072 15.9431 24.9789 15.6544C25.0004 15.3939 24.9297 15.1342 24.7789 14.9205C24.7128 14.844 24.6302 14.7838 24.5374 14.7438C24.4445 14.7038 24.3439 14.6851 24.2429 14.6896C24.1434 14.6868 24.0446 14.7067 23.9541 14.7482C23.8636 14.7896 23.7837 14.8517 23.7208 14.9288ZM13.8088 17.5026C13.6345 17.4854 13.465 17.4359 13.3088 17.3566C13.1673 17.2793 13.0423 17.1749 12.9409 17.0494C12.8371 16.9304 12.7591 16.7915 12.7119 16.6408C12.6506 16.4464 12.6169 16.2444 12.6119 16.0407V13.9225H13.6829V16.0905C13.6781 16.1729 13.6896 16.2557 13.7169 16.3336C13.7442 16.4116 13.7867 16.4831 13.8419 16.5446C13.9633 16.6488 14.1179 16.7062 14.2778 16.7062C14.4378 16.7062 14.5925 16.6488 14.7139 16.5446C14.769 16.4825 14.8114 16.4101 14.8385 16.3317C14.8656 16.2532 14.8769 16.1704 14.8718 16.0875V13.9196H15.9429V16.0377C15.9434 16.2419 15.9096 16.4448 15.8429 16.6378C15.7812 16.8215 15.6786 16.9884 15.5428 17.1266C15.4231 17.2572 15.276 17.3594 15.1119 17.4264C14.8707 17.5104 14.6162 17.5505 14.3608 17.5446C14.1765 17.5409 13.9926 17.5266 13.8099 17.5016L13.8088 17.5026ZM28.9479 17.4786L27.6478 15.5265V17.4786H26.6378V13.9235H27.6378L28.9469 15.8898V13.9235H29.9589V17.4786H28.9479ZM18.9698 17.4786L17.6699 15.5265V17.4786H16.6599V13.9235H17.6599L18.9679 15.8898V13.9235H19.9799V17.4786H18.9698ZM20.7399 17.4694V13.9205H21.8198V17.4694H20.7399ZM12.5349 12.4884C12.3034 12.2485 12.1659 11.9336 12.1478 11.6007L13.1699 11.5358C13.1806 11.6745 13.2267 11.8077 13.3038 11.9235C13.3596 11.9951 13.4318 12.0522 13.5143 12.09C13.5968 12.1278 13.6872 12.1454 13.7778 12.1408C13.9059 12.1493 14.0326 12.1094 14.1329 12.0294C14.1705 11.9997 14.2009 11.9621 14.222 11.9191C14.2432 11.8761 14.2544 11.8288 14.255 11.7809C14.2556 11.733 14.2454 11.6857 14.2253 11.6422C14.2053 11.5987 14.1757 11.5601 14.1389 11.5294C13.9727 11.4217 13.785 11.3513 13.5889 11.3234C13.2234 11.2622 12.8781 11.1144 12.5819 10.8917C12.4843 10.8067 12.4066 10.7008 12.3547 10.5822C12.3029 10.4635 12.278 10.3351 12.2819 10.2057C12.2823 10.022 12.3362 9.84228 12.4369 9.68861C12.5508 9.51718 12.7135 9.38398 12.9039 9.30579C13.1764 9.20144 13.4674 9.15397 13.7589 9.16663C14.1158 9.14282 14.4712 9.23157 14.7749 9.42054C14.8974 9.51748 14.9979 9.63965 15.0696 9.77845C15.1413 9.91726 15.1827 10.0697 15.1909 10.2257L14.1788 10.2868C14.1656 10.1539 14.1054 10.03 14.0089 9.93763C13.9068 9.8597 13.7801 9.82113 13.6519 9.82874C13.5512 9.82141 13.4513 9.85018 13.3699 9.9098C13.3399 9.93375 13.3158 9.96402 13.2993 9.99867C13.2829 10.0333 13.2745 10.0711 13.2749 10.1095C13.2757 10.1395 13.2832 10.1688 13.2969 10.1954C13.3105 10.2221 13.33 10.2457 13.3539 10.2638C13.4631 10.3333 13.5864 10.3776 13.7148 10.3937C14.0624 10.458 14.4012 10.5634 14.7239 10.7076C14.9059 10.7949 15.0594 10.9318 15.1669 11.1027C15.2597 11.2619 15.3075 11.4433 15.3049 11.6276C15.3062 11.8515 15.2418 12.0707 15.1199 12.2584C14.9945 12.4522 14.8146 12.6046 14.6029 12.6964C14.3376 12.8035 14.0528 12.8546 13.7668 12.8458C13.3252 12.892 12.8831 12.7631 12.5349 12.4874V12.4884ZM28.9489 12.7785L27.6489 10.8258V12.7785H26.6389V9.22376H27.6389L28.9479 11.1906V9.22376H29.9598V12.7785H28.9489ZM25.0739 12.7785L24.4999 11.6915C24.4537 11.5885 24.3874 11.4957 24.3049 11.4186C24.228 11.3636 24.1355 11.3345 24.0409 11.3356H23.9459V12.7785H22.8668V9.22376H24.6559C24.9125 9.21369 25.1691 9.24295 25.4169 9.31068C25.5908 9.36751 25.7406 9.48105 25.8419 9.63343C25.9531 9.80451 26.0093 10.0057 26.0029 10.2096C26.0074 10.3878 25.9649 10.5642 25.8799 10.7208C25.7975 10.8632 25.6806 10.9822 25.5399 11.0675C25.4224 11.1343 25.2952 11.1823 25.1628 11.2096C25.2621 11.2389 25.3564 11.2826 25.4429 11.3395C25.5071 11.3951 25.5646 11.4582 25.6139 11.5275C25.671 11.5959 25.7215 11.6698 25.7649 11.7477L26.2849 12.7785H25.0739ZM23.9469 10.6627H24.3999C24.4959 10.6558 24.5909 10.6394 24.6838 10.6144C24.7535 10.6001 24.8155 10.5607 24.8579 10.5035C24.903 10.4441 24.9269 10.3712 24.9259 10.2965C24.929 10.2472 24.921 10.1978 24.9025 10.152C24.8839 10.1061 24.8553 10.0648 24.8188 10.0314C24.6992 9.95784 24.5585 9.92603 24.4188 9.94056H23.9469V10.6627ZM19.3469 12.7785V9.22376H22.2249V9.98255H20.4249V10.5475H22.0969V11.2736H20.4249V11.9738H22.2799V12.7785H19.3469ZM16.6948 12.7785V10.1017H15.5999V9.22376H18.8649V10.1017H17.7649V12.7785H16.6948ZM8.82983 12.7785V9.22376H11.7079V9.98255H9.90784V10.5475H11.5789V11.2736H9.8999V11.9738H11.7529V12.7785H8.82983ZM6.66284 12.7785L6.05383 10.5397L5.4469 12.7785H4.39392L3.62085 9.22376H4.64087L5.00793 11.2135L5.5459 9.22376H6.56189L7.10083 11.2116L7.4679 9.22376H8.48291L7.71692 12.7785H6.66284Z" fill="#ECD345"/>
<path d="M34.7498 17.5408V9.16089H35.9497V17.5408H34.7498ZM31.7598 17.5408V9.16089H32.9597V17.5408H31.7598Z" fill="#ECD345"/>
<defs>
<linearGradient id="paint0_linear_8_527" x1="193.895" y1="25.7258" x2="193.895" y2="0.58374" gradientUnits="userSpaceOnUse">
<stop stop-color="#E59703"/>
<stop offset="0.231" stop-color="#E59703"/>
<stop offset="0.234" stop-color="white"/>
<stop offset="0.761" stop-color="white"/>
<stop offset="0.766" stop-color="#5457BB"/>
<stop offset="1" stop-color="#5457BB"/>
</linearGradient>
</defs>
</svg>
